{
	"patcher" : 	{
		"fileversion" : 1,
		"appversion" : 		{
			"major" : 8,
			"minor" : 0,
			"revision" : 2,
			"architecture" : "x64",
			"modernui" : 1
		}
,
		"classnamespace" : "box",
		"rect" : [ -1566.0, -271.0, 1300.0, 689.0 ],
		"bglocked" : 0,
		"openinpresentation" : 0,
		"default_fontsize" : 12.0,
		"default_fontface" : 0,
		"default_fontname" : "Arial",
		"gridonopen" : 1,
		"gridsize" : [ 15.0, 15.0 ],
		"gridsnaponopen" : 1,
		"objectsnaponopen" : 1,
		"statusbarvisible" : 2,
		"toolbarvisible" : 1,
		"lefttoolbarpinned" : 0,
		"toptoolbarpinned" : 0,
		"righttoolbarpinned" : 0,
		"bottomtoolbarpinned" : 0,
		"toolbars_unpinned_last_save" : 0,
		"tallnewobj" : 0,
		"boxanimatetime" : 200,
		"enablehscroll" : 1,
		"enablevscroll" : 1,
		"devicewidth" : 0.0,
		"description" : "",
		"digest" : "",
		"tags" : "",
		"style" : "",
		"subpatcher_template" : "",
		"boxes" : [ 			{
				"box" : 				{
					"id" : "obj-1",
					"maxclass" : "newobj",
					"numinlets" : 1,
					"numoutlets" : 1,
					"outlettype" : [ "" ],
					"patching_rect" : [ 24.757537841796875, 38.5, 70.0, 22.0 ],
					"text" : "loadmess 1"
				}

			}
, 			{
				"box" : 				{
					"fontface" : 1,
					"id" : "obj-119",
					"linecount" : 2,
					"maxclass" : "comment",
					"numinlets" : 1,
					"numoutlets" : 0,
					"patching_rect" : [ 862.791259765625, 434.0, 77.0, 33.0 ],
					"text" : "DCF \nOutput",
					"textcolor" : [ 0.996078431606293, 0.95686274766922, 0.95686274766922, 1.0 ],
					"textjustification" : 1
				}

			}
, 			{
				"box" : 				{
					"automatic" : 1,
					"bufsize" : 32,
					"drawstyle" : 1,
					"id" : "obj-120",
					"maxclass" : "scope~",
					"numinlets" : 2,
					"numoutlets" : 0,
					"patching_rect" : [ 942.719970703125, 400.5, 300.0, 100.0 ]
				}

			}
, 			{
				"box" : 				{
					"fontface" : 1,
					"id" : "obj-86",
					"linecount" : 2,
					"maxclass" : "comment",
					"numinlets" : 1,
					"numoutlets" : 0,
					"patching_rect" : [ 874.291259765625, 554.0, 54.0, 33.0 ],
					"text" : "DCA\nOutput",
					"textcolor" : [ 0.996078431606293, 0.95686274766922, 0.95686274766922, 1.0 ],
					"textjustification" : 1
				}

			}
, 			{
				"box" : 				{
					"automatic" : 1,
					"bufsize" : 32,
					"drawstyle" : 1,
					"id" : "obj-85",
					"maxclass" : "scope~",
					"numinlets" : 2,
					"numoutlets" : 0,
					"patching_rect" : [ 942.719970703125, 518.5, 300.0, 100.0 ]
				}

			}
, 			{
				"box" : 				{
					"fontface" : 1,
					"id" : "obj-32",
					"maxclass" : "comment",
					"numinlets" : 1,
					"numoutlets" : 0,
					"patching_rect" : [ 862.791259765625, 91.5, 77.0, 20.0 ],
					"text" : "LFO",
					"textcolor" : [ 0.996078431606293, 0.95686274766922, 0.95686274766922, 1.0 ],
					"textjustification" : 1
				}

			}
, 			{
				"box" : 				{
					"automatic" : 1,
					"bufsize" : 32,
					"drawstyle" : 1,
					"id" : "obj-39",
					"maxclass" : "scope~",
					"numinlets" : 2,
					"numoutlets" : 0,
					"patching_rect" : [ 942.719970703125, 51.5, 300.0, 100.0 ]
				}

			}
, 			{
				"box" : 				{
					"fontface" : 1,
					"id" : "obj-29",
					"linecount" : 2,
					"maxclass" : "comment",
					"numinlets" : 1,
					"numoutlets" : 0,
					"patching_rect" : [ 874.291259765625, 315.382080078125, 54.0, 33.0 ],
					"text" : "DCO\nOutput",
					"textcolor" : [ 0.996078431606293, 0.95686274766922, 0.95686274766922, 1.0 ],
					"textjustification" : 1
				}

			}
, 			{
				"box" : 				{
					"fontface" : 1,
					"id" : "obj-128",
					"maxclass" : "comment",
					"numinlets" : 1,
					"numoutlets" : 0,
					"patching_rect" : [ 862.791259765625, 208.5, 77.0, 20.0 ],
					"text" : "ENV",
					"textcolor" : [ 0.996078431606293, 0.95686274766922, 0.95686274766922, 1.0 ],
					"textjustification" : 1
				}

			}
, 			{
				"box" : 				{
					"automatic" : 1,
					"bufsize" : 32,
					"drawstyle" : 1,
					"id" : "obj-129",
					"maxclass" : "scope~",
					"numinlets" : 2,
					"numoutlets" : 0,
					"patching_rect" : [ 942.719970703125, 168.5, 300.0, 100.0 ]
				}

			}
, 			{
				"box" : 				{
					"automatic" : 1,
					"bufsize" : 32,
					"drawstyle" : 1,
					"id" : "obj-83",
					"maxclass" : "scope~",
					"numinlets" : 2,
					"numoutlets" : 0,
					"patching_rect" : [ 942.719970703125, 283.5, 300.0, 100.0 ]
				}

			}
, 			{
				"box" : 				{
					"fontface" : 1,
					"fontsize" : 16.0,
					"id" : "obj-3",
					"maxclass" : "comment",
					"numinlets" : 1,
					"numoutlets" : 0,
					"patching_rect" : [ 251.7071533203125, 38.5, 216.7071533203125, 24.0 ],
					"presentation" : 1,
					"presentation_rect" : [ 756.0072021484375, 391.0, 216.7071533203125, 24.0 ],
					"text" : "MOD",
					"textcolor" : [ 0.996078431606293, 0.996078431606293, 0.996078431606293, 1.0 ],
					"textjustification" : 1
				}

			}
, 			{
				"box" : 				{
					"fontface" : 0,
					"id" : "obj-5",
					"maxclass" : "comment",
					"numinlets" : 1,
					"numoutlets" : 0,
					"patching_rect" : [ 407.7071533203125, 68.5, 60.7071533203125, 20.0 ],
					"presentation" : 1,
					"presentation_rect" : [ 912.0072021484375, 421.0, 60.7071533203125, 20.0 ],
					"text" : "AM",
					"textcolor" : [ 0.996078431606293, 0.996078431606293, 0.996078431606293, 1.0 ],
					"textjustification" : 1
				}

			}
, 			{
				"box" : 				{
					"floatoutput" : 1,
					"id" : "obj-7",
					"knobcolor" : [ 0.666666666666667, 0.72156862745098, 0.737254901960784, 1.0 ],
					"maxclass" : "slider",
					"numinlets" : 1,
					"numoutlets" : 1,
					"outlettype" : [ "" ],
					"parameter_enable" : 0,
					"patching_rect" : [ 428.7071533203125, 95.5, 20.0, 140.0 ],
					"presentation" : 1,
					"presentation_rect" : [ 933.0072021484375, 448.0, 20.0, 140.0 ],
					"size" : 127.0
				}

			}
, 			{
				"box" : 				{
					"fontface" : 0,
					"id" : "obj-9",
					"maxclass" : "comment",
					"numinlets" : 1,
					"numoutlets" : 0,
					"patching_rect" : [ 304.7071533203125, 68.5, 62.0, 20.0 ],
					"presentation" : 1,
					"presentation_rect" : [ 809.0072021484375, 421.0, 62.0, 20.0 ],
					"text" : "PWM",
					"textcolor" : [ 0.996078431606293, 0.996078431606293, 0.996078431606293, 1.0 ],
					"textjustification" : 1
				}

			}
, 			{
				"box" : 				{
					"fontface" : 0,
					"id" : "obj-101",
					"maxclass" : "comment",
					"numinlets" : 1,
					"numoutlets" : 0,
					"patching_rect" : [ 355.7071533203125, 68.5, 62.0, 20.0 ],
					"presentation" : 1,
					"presentation_rect" : [ 860.0072021484375, 421.0, 62.0, 20.0 ],
					"text" : "FCM",
					"textcolor" : [ 0.996078431606293, 0.996078431606293, 0.996078431606293, 1.0 ],
					"textjustification" : 1
				}

			}
, 			{
				"box" : 				{
					"floatoutput" : 1,
					"id" : "obj-10",
					"knobcolor" : [ 0.666666666666667, 0.72156862745098, 0.737254901960784, 1.0 ],
					"maxclass" : "slider",
					"numinlets" : 1,
					"numoutlets" : 1,
					"outlettype" : [ "" ],
					"parameter_enable" : 0,
					"patching_rect" : [ 376.7071533203125, 95.5, 20.0, 140.0 ],
					"presentation" : 1,
					"presentation_rect" : [ 881.0072021484375, 448.0, 20.0, 140.0 ],
					"size" : 127.0
				}

			}
, 			{
				"box" : 				{
					"fontface" : 0,
					"id" : "obj-11",
					"maxclass" : "comment",
					"numinlets" : 1,
					"numoutlets" : 0,
					"patching_rect" : [ 263.7071533203125, 68.5, 42.0, 20.0 ],
					"presentation" : 1,
					"presentation_rect" : [ 768.0072021484375, 421.0, 42.0, 20.0 ],
					"text" : "FM",
					"textcolor" : [ 0.996078431606293, 0.996078431606293, 0.996078431606293, 1.0 ],
					"textjustification" : 1
				}

			}
, 			{
				"box" : 				{
					"floatoutput" : 1,
					"id" : "obj-13",
					"knobcolor" : [ 0.666666666666667, 0.72156862745098, 0.737254901960784, 1.0 ],
					"maxclass" : "slider",
					"numinlets" : 1,
					"numoutlets" : 1,
					"outlettype" : [ "" ],
					"parameter_enable" : 0,
					"patching_rect" : [ 325.7071533203125, 95.5, 20.0, 140.0 ],
					"presentation" : 1,
					"presentation_rect" : [ 830.0072021484375, 448.0, 20.0, 140.0 ],
					"size" : 127.0
				}

			}
, 			{
				"box" : 				{
					"floatoutput" : 1,
					"id" : "obj-14",
					"knobcolor" : [ 0.666666666666667, 0.72156862745098, 0.737254901960784, 1.0 ],
					"maxclass" : "slider",
					"numinlets" : 1,
					"numoutlets" : 1,
					"outlettype" : [ "" ],
					"parameter_enable" : 0,
					"patching_rect" : [ 274.7071533203125, 95.5, 20.0, 140.0 ],
					"presentation" : 1,
					"presentation_rect" : [ 779.0072021484375, 448.0, 20.0, 140.0 ],
					"size" : 127.0
				}

			}
, 			{
				"box" : 				{
					"id" : "obj-133",
					"maxclass" : "newobj",
					"numinlets" : 2,
					"numoutlets" : 1,
					"outlettype" : [ "" ],
					"patching_rect" : [ 194.0, 344.5, 54.0, 22.0 ],
					"text" : "pack 0 0"
				}

			}
, 			{
				"box" : 				{
					"id" : "obj-132",
					"maxclass" : "newobj",
					"numinlets" : 1,
					"numoutlets" : 2,
					"outlettype" : [ "int", "int" ],
					"patching_rect" : [ 194.0, 315.5, 54.0, 22.0 ],
					"text" : "bendin"
				}

			}
, 			{
				"box" : 				{
					"id" : "obj-42",
					"maxclass" : "newobj",
					"numinlets" : 3,
					"numoutlets" : 1,
					"outlettype" : [ "" ],
					"patching_rect" : [ 123.5, 344.5, 64.0, 22.0 ],
					"text" : "pack 0 0 0"
				}

			}
, 			{
				"box" : 				{
					"id" : "obj-31",
					"maxclass" : "number",
					"numinlets" : 1,
					"numoutlets" : 2,
					"outlettype" : [ "", "bang" ],
					"parameter_enable" : 0,
					"patching_rect" : [ 194.0, 403.117919921875, 50.0, 22.0 ]
				}

			}
, 			{
				"box" : 				{
					"id" : "obj-28",
					"maxclass" : "number",
					"numinlets" : 1,
					"numoutlets" : 2,
					"outlettype" : [ "", "bang" ],
					"parameter_enable" : 0,
					"patching_rect" : [ 123.5, 403.117919921875, 50.0, 22.0 ]
				}

			}
, 			{
				"box" : 				{
					"id" : "obj-26",
					"maxclass" : "newobj",
					"numinlets" : 1,
					"numoutlets" : 3,
					"outlettype" : [ "int", "int", "int" ],
					"patching_rect" : [ 123.5, 315.5, 64.0, 22.0 ],
					"text" : "notein"
				}

			}
, 			{
				"box" : 				{
					"id" : "obj-24",
					"maxclass" : "newobj",
					"numinlets" : 2,
					"numoutlets" : 2,
					"outlettype" : [ "", "" ],
					"patching_rect" : [ 123.5, 373.5, 89.5, 22.0 ],
					"saved_object_attributes" : 					{
						"filename" : "jg.notem.js",
						"parameter_enable" : 0
					}
,
					"text" : "js jg.notem.js"
				}

			}
, 			{
				"box" : 				{
					"id" : "obj-161",
					"maxclass" : "newobj",
					"numinlets" : 27,
					"numoutlets" : 9,
					"outlettype" : [ "signal", "signal", "signal", "signal", "signal", "signal", "signal", "signal", "signal" ],
					"patching_rect" : [ 24.757537841796875, 506.0, 621.89923095703125, 22.0 ],
					"text" : "jg.voice.mod2~"
				}

			}
, 			{
				"box" : 				{
					"color" : [ 0.627450980392157, 0.290196078431373, 0.290196078431373, 1.0 ],
					"id" : "obj-121",
					"maxclass" : "newobj",
					"numinlets" : 0,
					"numoutlets" : 1,
					"outlettype" : [ "" ],
					"patching_rect" : [ 69.036819458007812, 467.0, 31.0, 22.0 ],
					"text" : "r vel"
				}

			}
, 			{
				"box" : 				{
					"color" : [ 0.772549019607843, 0.462745098039216, 0.219607843137255, 1.0 ],
					"id" : "obj-118",
					"maxclass" : "newobj",
					"numinlets" : 0,
					"numoutlets" : 1,
					"outlettype" : [ "" ],
					"patching_rect" : [ 24.757537841796875, 467.0, 39.0, 22.0 ],
					"text" : "r note"
				}

			}
, 			{
				"box" : 				{
					"color" : [ 0.627450980392157, 0.290196078431373, 0.290196078431373, 1.0 ],
					"id" : "obj-4",
					"maxclass" : "newobj",
					"numinlets" : 1,
					"numoutlets" : 0,
					"patching_rect" : [ 194.0, 433.5, 41.0, 22.0 ],
					"presentation" : 1,
					"presentation_rect" : [ 772.571533203125, 554.0, 41.0, 22.0 ],
					"text" : "s vel"
				}

			}
, 			{
				"box" : 				{
					"color" : [ 0.772549019607843, 0.462745098039216, 0.219607843137255, 1.0 ],
					"id" : "obj-116",
					"maxclass" : "newobj",
					"numinlets" : 1,
					"numoutlets" : 0,
					"patching_rect" : [ 123.5, 433.5, 41.0, 22.0 ],
					"presentation" : 1,
					"presentation_rect" : [ 772.571533203125, 523.0, 41.0, 22.0 ],
					"text" : "s note"
				}

			}
, 			{
				"box" : 				{
					"fontface" : 1,
					"fontsize" : 14.0,
					"id" : "obj-45",
					"maxclass" : "comment",
					"numinlets" : 1,
					"numoutlets" : 0,
					"patching_rect" : [ 123.5, 288.5, 124.5, 22.0 ],
					"presentation" : 1,
					"presentation_rect" : [ 770.071533203125, 448.0, 46.0, 22.0 ],
					"text" : "MIDI",
					"textcolor" : [ 0.996078431606293, 0.996078431606293, 0.996078431606293, 1.0 ],
					"textjustification" : 1
				}

			}
, 			{
				"box" : 				{
					"id" : "obj-43",
					"maxclass" : "comment",
					"numinlets" : 1,
					"numoutlets" : 0,
					"patching_rect" : [ 269.857177734375, 288.5, 37.0, 20.0 ],
					"presentation" : 1,
					"presentation_rect" : [ 827.57147216796875, 421.0, 37.0, 20.0 ],
					"text" : "Glide",
					"textcolor" : [ 0.996078431606293, 0.996078431606293, 0.996078431606293, 1.0 ],
					"textjustification" : 1
				}

			}
, 			{
				"box" : 				{
					"fontface" : 1,
					"fontsize" : 16.0,
					"id" : "obj-40",
					"maxclass" : "comment",
					"numinlets" : 1,
					"numoutlets" : 0,
					"patching_rect" : [ 107.0, 258.5, 214.357177734375, 24.0 ],
					"presentation" : 1,
					"presentation_rect" : [ 755.71429443359375, 391.0, 123.357177734375, 24.0 ],
					"text" : "Pitch",
					"textcolor" : [ 0.996078431606293, 0.996078431606293, 0.996078431606293, 1.0 ],
					"textjustification" : 1
				}

			}
, 			{
				"box" : 				{
					"floatoutput" : 1,
					"id" : "obj-46",
					"knobcolor" : [ 0.666666666666667, 0.72156862745098, 0.737254901960784, 1.0 ],
					"maxclass" : "slider",
					"numinlets" : 1,
					"numoutlets" : 1,
					"outlettype" : [ "" ],
					"parameter_enable" : 0,
					"patching_rect" : [ 278.357177734375, 315.5, 20.0, 140.0 ],
					"presentation" : 1,
					"presentation_rect" : [ 836.07147216796875, 448.0, 20.0, 140.0 ],
					"size" : 127.0
				}

			}
, 			{
				"box" : 				{
					"disabled" : [ 0 ],
					"id" : "obj-181",
					"itemtype" : 1,
					"maxclass" : "radiogroup",
					"numinlets" : 1,
					"numoutlets" : 1,
					"outlettype" : [ "" ],
					"parameter_enable" : 0,
					"patching_rect" : [ 698.27069091796875, 317.5, 18.0, 18.0 ],
					"presentation" : 1,
					"presentation_rect" : [ 733.5001220703125, 323.0, 18.0, 18.0 ],
					"size" : 1,
					"values" : [ 0 ]
				}

			}
, 			{
				"box" : 				{
					"fontface" : 0,
					"id" : "obj-165",
					"linecount" : 2,
					"maxclass" : "comment",
					"numinlets" : 1,
					"numoutlets" : 0,
					"patching_rect" : [ 716.12945556640625, 310.0, 40.651683807373047, 33.0 ],
					"presentation" : 1,
					"presentation_linecount" : 2,
					"presentation_rect" : [ 753.35888671875, 315.5, 40.651683807373047, 33.0 ],
					"text" : "MIDI Scale",
					"textcolor" : [ 0.996078431606293, 0.996078431606293, 0.996078431606293, 1.0 ],
					"textjustification" : 1
				}

			}
, 			{
				"box" : 				{
					"id" : "obj-74",
					"maxclass" : "comment",
					"numinlets" : 1,
					"numoutlets" : 0,
					"patching_rect" : [ 716.27069091796875, 411.5, 27.0, 20.0 ],
					"presentation" : 1,
					"presentation_rect" : [ 751.5001220703125, 417.0, 27.0, 20.0 ],
					"text" : "BP",
					"textcolor" : [ 0.996078431606293, 0.996078431606293, 0.996078431606293, 1.0 ]
				}

			}
, 			{
				"box" : 				{
					"id" : "obj-88",
					"maxclass" : "comment",
					"numinlets" : 1,
					"numoutlets" : 0,
					"patching_rect" : [ 716.27069091796875, 390.5, 27.0, 20.0 ],
					"presentation" : 1,
					"presentation_rect" : [ 751.5001220703125, 396.0, 27.0, 20.0 ],
					"text" : "HP",
					"textcolor" : [ 0.996078431606293, 0.996078431606293, 0.996078431606293, 1.0 ]
				}

			}
, 			{
				"box" : 				{
					"id" : "obj-89",
					"maxclass" : "comment",
					"numinlets" : 1,
					"numoutlets" : 0,
					"patching_rect" : [ 716.27069091796875, 370.5, 27.0, 20.0 ],
					"presentation" : 1,
					"presentation_rect" : [ 751.5001220703125, 376.0, 27.0, 20.0 ],
					"text" : "LP",
					"textcolor" : [ 0.996078431606293, 0.996078431606293, 0.996078431606293, 1.0 ]
				}

			}
, 			{
				"box" : 				{
					"disabled" : [ 0, 0, 0 ],
					"id" : "obj-90",
					"itemtype" : 0,
					"maxclass" : "radiogroup",
					"numinlets" : 1,
					"numoutlets" : 1,
					"outlettype" : [ "" ],
					"parameter_enable" : 0,
					"patching_rect" : [ 698.27069091796875, 375.5, 18.0, 50.0 ],
					"presentation" : 1,
					"presentation_rect" : [ 733.5001220703125, 381.0, 18.0, 50.0 ],
					"size" : 3,
					"value" : 0
				}

			}
, 			{
				"box" : 				{
					"id" : "obj-91",
					"linecount" : 2,
					"maxclass" : "comment",
					"numinlets" : 1,
					"numoutlets" : 0,
					"patching_rect" : [ 587.98492431640625, 282.0, 45.0, 33.0 ],
					"presentation" : 1,
					"presentation_linecount" : 2,
					"presentation_rect" : [ 623.21435546875, 287.5, 45.0, 33.0 ],
					"text" : "Cutoff Freq",
					"textcolor" : [ 0.996078431606293, 0.996078431606293, 0.996078431606293, 1.0 ],
					"textjustification" : 1
				}

			}
, 			{
				"box" : 				{
					"floatoutput" : 1,
					"id" : "obj-92",
					"knobcolor" : [ 0.666666666666667, 0.72156862745098, 0.737254901960784, 1.0 ],
					"maxclass" : "slider",
					"numinlets" : 1,
					"numoutlets" : 1,
					"outlettype" : [ "" ],
					"parameter_enable" : 0,
					"patching_rect" : [ 600.48492431640625, 315.5, 20.0, 140.0 ],
					"presentation" : 1,
					"presentation_rect" : [ 635.71435546875, 321.0, 20.0, 140.0 ],
					"size" : 127.0
				}

			}
, 			{
				"box" : 				{
					"fontface" : 0,
					"id" : "obj-93",
					"maxclass" : "comment",
					"numinlets" : 1,
					"numoutlets" : 0,
					"patching_rect" : [ 640.48492431640625, 288.5, 44.0, 20.0 ],
					"presentation" : 1,
					"presentation_rect" : [ 675.71435546875, 294.0, 44.0, 20.0 ],
					"text" : "Q",
					"textcolor" : [ 0.996078431606293, 0.996078431606293, 0.996078431606293, 1.0 ],
					"textjustification" : 1
				}

			}
, 			{
				"box" : 				{
					"floatoutput" : 1,
					"id" : "obj-94",
					"knobcolor" : [ 0.666666666666667, 0.72156862745098, 0.737254901960784, 1.0 ],
					"maxclass" : "slider",
					"numinlets" : 1,
					"numoutlets" : 1,
					"outlettype" : [ "" ],
					"parameter_enable" : 0,
					"patching_rect" : [ 652.48492431640625, 315.5, 20.0, 140.0 ],
					"presentation" : 1,
					"presentation_rect" : [ 687.71435546875, 321.0, 20.0, 140.0 ],
					"size" : 127.0
				}

			}
, 			{
				"box" : 				{
					"fontface" : 1,
					"fontsize" : 16.0,
					"id" : "obj-95",
					"maxclass" : "comment",
					"numinlets" : 1,
					"numoutlets" : 0,
					"patching_rect" : [ 578.48492431640625, 258.5, 184.7857666015625, 24.0 ],
					"presentation" : 1,
					"presentation_rect" : [ 613.71435546875, 264.0, 184.7857666015625, 24.0 ],
					"text" : "DCF",
					"textcolor" : [ 0.996078431606293, 0.996078431606293, 0.996078431606293, 1.0 ],
					"textjustification" : 1
				}

			}
, 			{
				"box" : 				{
					"fontface" : 1,
					"fontsize" : 16.0,
					"id" : "obj-75",
					"maxclass" : "comment",
					"numinlets" : 1,
					"numoutlets" : 0,
					"patching_rect" : [ 766.33331298828125, 258.5, 60.7071533203125, 24.0 ],
					"presentation" : 1,
					"presentation_rect" : [ 771.0072021484375, 406.0, 60.7071533203125, 24.0 ],
					"text" : "DCA",
					"textcolor" : [ 0.996078431606293, 0.996078431606293, 0.996078431606293, 1.0 ],
					"textjustification" : 1
				}

			}
, 			{
				"box" : 				{
					"fontface" : 0,
					"id" : "obj-76",
					"maxclass" : "comment",
					"numinlets" : 1,
					"numoutlets" : 0,
					"patching_rect" : [ 766.33331298828125, 288.5, 60.7071533203125, 20.0 ],
					"presentation" : 1,
					"presentation_rect" : [ 771.0072021484375, 436.0, 60.7071533203125, 20.0 ],
					"text" : "Level",
					"textcolor" : [ 0.996078431606293, 0.996078431606293, 0.996078431606293, 1.0 ],
					"textjustification" : 1
				}

			}
, 			{
				"box" : 				{
					"floatoutput" : 1,
					"id" : "obj-77",
					"knobcolor" : [ 0.666666666666667, 0.72156862745098, 0.737254901960784, 1.0 ],
					"maxclass" : "slider",
					"numinlets" : 1,
					"numoutlets" : 1,
					"outlettype" : [ "" ],
					"parameter_enable" : 0,
					"patching_rect" : [ 787.33331298828125, 315.5, 20.0, 140.0 ],
					"presentation" : 1,
					"presentation_rect" : [ 792.0072021484375, 463.0, 20.0, 140.0 ],
					"size" : 127.0
				}

			}
, 			{
				"box" : 				{
					"id" : "obj-18",
					"maxclass" : "comment",
					"numinlets" : 1,
					"numoutlets" : 0,
					"patching_rect" : [ 514.20928955078125, 390.5, 42.0, 20.0 ],
					"presentation" : 1,
					"presentation_rect" : [ 946.28076171875, 523.0, 42.0, 20.0 ],
					"text" : "Pulse",
					"textcolor" : [ 0.996078431606293, 0.996078431606293, 0.996078431606293, 1.0 ]
				}

			}
, 			{
				"box" : 				{
					"id" : "obj-59",
					"maxclass" : "comment",
					"numinlets" : 1,
					"numoutlets" : 0,
					"patching_rect" : [ 514.20928955078125, 369.5, 58.0, 20.0 ],
					"presentation" : 1,
					"presentation_rect" : [ 946.28076171875, 502.0, 58.0, 20.0 ],
					"text" : "Tri/Ramp",
					"textcolor" : [ 0.996078431606293, 0.996078431606293, 0.996078431606293, 1.0 ]
				}

			}
, 			{
				"box" : 				{
					"id" : "obj-60",
					"maxclass" : "comment",
					"numinlets" : 1,
					"numoutlets" : 0,
					"patching_rect" : [ 514.20928955078125, 349.5, 33.0, 20.0 ],
					"presentation" : 1,
					"presentation_rect" : [ 946.28076171875, 482.0, 33.0, 20.0 ],
					"text" : "Sine",
					"textcolor" : [ 0.996078431606293, 0.996078431606293, 0.996078431606293, 1.0 ]
				}

			}
, 			{
				"box" : 				{
					"disabled" : [ 0, 0, 0 ],
					"id" : "obj-61",
					"itemtype" : 0,
					"maxclass" : "radiogroup",
					"numinlets" : 1,
					"numoutlets" : 1,
					"outlettype" : [ "" ],
					"parameter_enable" : 0,
					"patching_rect" : [ 496.20928955078125, 354.5, 18.0, 50.0 ],
					"presentation" : 1,
					"presentation_rect" : [ 928.28076171875, 487.0, 18.0, 50.0 ],
					"size" : 3,
					"value" : 1
				}

			}
, 			{
				"box" : 				{
					"fontface" : 1,
					"fontsize" : 16.0,
					"id" : "obj-41",
					"maxclass" : "comment",
					"numinlets" : 1,
					"numoutlets" : 0,
					"patching_rect" : [ 324.0, 258.5, 251.142822265625, 24.0 ],
					"presentation" : 1,
					"presentation_rect" : [ 756.07147216796875, 391.0, 251.142822265625, 24.0 ],
					"text" : "DCO",
					"textcolor" : [ 0.996078431606293, 0.996078431606293, 0.996078431606293, 1.0 ],
					"textjustification" : 1
				}

			}
, 			{
				"box" : 				{
					"id" : "obj-33",
					"linecount" : 2,
					"maxclass" : "comment",
					"numinlets" : 1,
					"numoutlets" : 0,
					"patching_rect" : [ 388.5, 282.0, 34.0, 33.0 ],
					"presentation" : 1,
					"presentation_linecount" : 2,
					"presentation_rect" : [ 820.57147216796875, 414.5, 34.0, 33.0 ],
					"text" : "Fine\nFreq",
					"textcolor" : [ 0.996078431606293, 0.996078431606293, 0.996078431606293, 1.0 ],
					"textjustification" : 1
				}

			}
, 			{
				"box" : 				{
					"id" : "obj-66",
					"maxclass" : "comment",
					"numinlets" : 1,
					"numoutlets" : 0,
					"patching_rect" : [ 330.0, 288.5, 49.0, 20.0 ],
					"presentation" : 1,
					"presentation_rect" : [ 762.07147216796875, 421.0, 49.0, 20.0 ],
					"text" : "Octave",
					"textcolor" : [ 0.996078431606293, 0.996078431606293, 0.996078431606293, 1.0 ],
					"textjustification" : 1
				}

			}
, 			{
				"box" : 				{
					"floatoutput" : 1,
					"id" : "obj-50",
					"knobcolor" : [ 0.666666666666667, 0.72156862745098, 0.737254901960784, 1.0 ],
					"maxclass" : "slider",
					"numinlets" : 1,
					"numoutlets" : 1,
					"outlettype" : [ "" ],
					"parameter_enable" : 0,
					"patching_rect" : [ 395.5, 315.5, 20.0, 140.0 ],
					"presentation" : 1,
					"presentation_rect" : [ 827.57147216796875, 448.0, 20.0, 140.0 ],
					"size" : 127.0
				}

			}
, 			{
				"box" : 				{
					"id" : "obj-67",
					"knobcolor" : [ 0.666666666666667, 0.72156862745098, 0.737254901960784, 1.0 ],
					"maxclass" : "slider",
					"mult" : 24.0,
					"numinlets" : 1,
					"numoutlets" : 1,
					"outlettype" : [ "" ],
					"parameter_enable" : 0,
					"patching_rect" : [ 344.5, 315.5, 20.0, 140.0 ],
					"presentation" : 1,
					"presentation_rect" : [ 776.57147216796875, 448.0, 20.0, 140.0 ],
					"size" : 6.0
				}

			}
, 			{
				"box" : 				{
					"fontface" : 0,
					"id" : "obj-36",
					"linecount" : 2,
					"maxclass" : "comment",
					"numinlets" : 1,
					"numoutlets" : 0,
					"patching_rect" : [ 435.5, 282.0, 44.0, 33.0 ],
					"presentation" : 1,
					"presentation_linecount" : 2,
					"presentation_rect" : [ 867.57147216796875, 414.5, 44.0, 33.0 ],
					"text" : "Duty\nCycle",
					"textcolor" : [ 0.996078431606293, 0.996078431606293, 0.996078431606293, 1.0 ],
					"textjustification" : 1
				}

			}
, 			{
				"box" : 				{
					"floatoutput" : 1,
					"id" : "obj-69",
					"knobcolor" : [ 0.666666666666667, 0.72156862745098, 0.737254901960784, 1.0 ],
					"maxclass" : "slider",
					"numinlets" : 1,
					"numoutlets" : 1,
					"outlettype" : [ "" ],
					"parameter_enable" : 0,
					"patching_rect" : [ 447.5, 315.5, 20.0, 140.0 ],
					"presentation" : 1,
					"presentation_rect" : [ 879.57147216796875, 448.0, 20.0, 140.0 ],
					"size" : 127.0
				}

			}
, 			{
				"box" : 				{
					"fontface" : 1,
					"fontsize" : 16.0,
					"id" : "obj-96",
					"maxclass" : "comment",
					"numinlets" : 1,
					"numoutlets" : 0,
					"patching_rect" : [ 133.08331298828125, 38.5, 115.7071533203125, 24.0 ],
					"presentation" : 1,
					"presentation_rect" : [ 495.0072021484375, 161.0, 115.7071533203125, 24.0 ],
					"text" : "LFO",
					"textcolor" : [ 0.996078431606293, 0.996078431606293, 0.996078431606293, 1.0 ],
					"textjustification" : 1
				}

			}
, 			{
				"box" : 				{
					"fontface" : 0,
					"id" : "obj-99",
					"maxclass" : "comment",
					"numinlets" : 1,
					"numoutlets" : 0,
					"patching_rect" : [ 185.58331298828125, 68.5, 63.0, 20.0 ],
					"presentation" : 1,
					"presentation_linecount" : 2,
					"presentation_rect" : [ 558.5072021484375, 191.0, 41.0, 33.0 ],
					"text" : "Harmonic",
					"textcolor" : [ 0.996078431606293, 0.996078431606293, 0.996078431606293, 1.0 ],
					"textjustification" : 1
				}

			}
, 			{
				"box" : 				{
					"fontface" : 0,
					"id" : "obj-103",
					"maxclass" : "comment",
					"numinlets" : 1,
					"numoutlets" : 0,
					"patching_rect" : [ 145.08331298828125, 68.5, 42.0, 20.0 ],
					"presentation" : 1,
					"presentation_rect" : [ 507.0072021484375, 191.0, 42.0, 20.0 ],
					"text" : "Rate",
					"textcolor" : [ 0.996078431606293, 0.996078431606293, 0.996078431606293, 1.0 ],
					"textjustification" : 1
				}

			}
, 			{
				"box" : 				{
					"id" : "obj-104",
					"knobcolor" : [ 0.666666666666667, 0.72156862745098, 0.737254901960784, 1.0 ],
					"maxclass" : "slider",
					"numinlets" : 1,
					"numoutlets" : 1,
					"outlettype" : [ "" ],
					"parameter_enable" : 0,
					"patching_rect" : [ 207.08331298828125, 95.5, 20.0, 140.0 ],
					"presentation" : 1,
					"presentation_rect" : [ 569.0072021484375, 218.0, 20.0, 140.0 ],
					"size" : 8.0
				}

			}
, 			{
				"box" : 				{
					"floatoutput" : 1,
					"id" : "obj-105",
					"knobcolor" : [ 0.666666666666667, 0.72156862745098, 0.737254901960784, 1.0 ],
					"maxclass" : "slider",
					"numinlets" : 1,
					"numoutlets" : 1,
					"outlettype" : [ "" ],
					"parameter_enable" : 0,
					"patching_rect" : [ 156.08331298828125, 95.5, 20.0, 140.0 ],
					"presentation" : 1,
					"presentation_rect" : [ 518.0072021484375, 218.0, 20.0, 140.0 ],
					"size" : 127.0
				}

			}
, 			{
				"box" : 				{
					"fontface" : 0,
					"id" : "obj-34",
					"maxclass" : "comment",
					"numinlets" : 1,
					"numoutlets" : 0,
					"patching_rect" : [ 678.39923095703125, 68.7415771484375, 62.0, 20.0 ],
					"presentation" : 1,
					"presentation_rect" : [ 504.7071533203125, 135.2415771484375, 62.0, 20.0 ],
					"text" : "Shape",
					"textcolor" : [ 0.996078431606293, 0.996078431606293, 0.996078431606293, 1.0 ],
					"textjustification" : 1
				}

			}
, 			{
				"box" : 				{
					"floatoutput" : 1,
					"id" : "obj-35",
					"knobcolor" : [ 0.666666666666667, 0.72156862745098, 0.737254901960784, 1.0 ],
					"maxclass" : "slider",
					"numinlets" : 1,
					"numoutlets" : 1,
					"outlettype" : [ "" ],
					"parameter_enable" : 0,
					"patching_rect" : [ 699.39923095703125, 95.5, 20.0, 140.0 ],
					"presentation" : 1,
					"presentation_rect" : [ 525.7071533203125, 162.0, 20.0, 140.0 ],
					"size" : 127.0
				}

			}
, 			{
				"box" : 				{
					"fontface" : 0,
					"id" : "obj-51",
					"maxclass" : "comment",
					"numinlets" : 1,
					"numoutlets" : 0,
					"patching_rect" : [ 768.04046630859375, 181.5, 53.0, 20.0 ],
					"presentation" : 1,
					"presentation_rect" : [ 594.348388671875, 248.0, 53.0, 20.0 ],
					"text" : "Retrig",
					"textcolor" : [ 0.996078431606293, 0.996078431606293, 0.996078431606293, 1.0 ],
					"textjustification" : 1
				}

			}
, 			{
				"box" : 				{
					"fontface" : 0,
					"id" : "obj-52",
					"linecount" : 2,
					"maxclass" : "comment",
					"numinlets" : 1,
					"numoutlets" : 0,
					"patching_rect" : [ 769.04046630859375, 123.0, 53.0, 33.0 ],
					"presentation" : 1,
					"presentation_linecount" : 2,
					"presentation_rect" : [ 595.348388671875, 189.5, 53.0, 33.0 ],
					"text" : "Velocity Scale",
					"textcolor" : [ 0.996078431606293, 0.996078431606293, 0.996078431606293, 1.0 ],
					"textjustification" : 1
				}

			}
, 			{
				"box" : 				{
					"disabled" : [ 0 ],
					"id" : "obj-53",
					"itemtype" : 1,
					"maxclass" : "radiogroup",
					"numinlets" : 1,
					"numoutlets" : 1,
					"outlettype" : [ "" ],
					"parameter_enable" : 0,
					"patching_rect" : [ 751.39923095703125, 183.5, 18.0, 18.0 ],
					"presentation" : 1,
					"presentation_rect" : [ 577.7071533203125, 250.0, 18.0, 18.0 ],
					"size" : 1,
					"values" : [ 0 ]
				}

			}
, 			{
				"box" : 				{
					"disabled" : [ 0 ],
					"id" : "obj-54",
					"itemtype" : 1,
					"maxclass" : "radiogroup",
					"numinlets" : 1,
					"numoutlets" : 1,
					"outlettype" : [ "" ],
					"parameter_enable" : 0,
					"patching_rect" : [ 751.39923095703125, 130.5, 18.0, 18.0 ],
					"presentation" : 1,
					"presentation_rect" : [ 577.7071533203125, 197.0, 18.0, 18.0 ],
					"size" : 1,
					"values" : [ 0 ]
				}

			}
, 			{
				"box" : 				{
					"fontface" : 1,
					"fontsize" : 16.0,
					"id" : "obj-81",
					"maxclass" : "comment",
					"numinlets" : 1,
					"numoutlets" : 0,
					"patching_rect" : [ 472.69207763671875, 38.5, 354.348388671875, 24.0 ],
					"presentation" : 1,
					"presentation_rect" : [ 299.0, 105.0, 354.348388671875, 24.0 ],
					"text" : "ENV",
					"textcolor" : [ 0.996078431606293, 0.996078431606293, 0.996078431606293, 1.0 ],
					"textjustification" : 1
				}

			}
, 			{
				"box" : 				{
					"fontface" : 0,
					"id" : "obj-72",
					"maxclass" : "comment",
					"numinlets" : 1,
					"numoutlets" : 0,
					"patching_rect" : [ 627.39923095703125, 68.7415771484375, 62.0, 20.0 ],
					"presentation" : 1,
					"presentation_rect" : [ 453.7071533203125, 135.2415771484375, 62.0, 20.0 ],
					"text" : "Release",
					"textcolor" : [ 0.996078431606293, 0.996078431606293, 0.996078431606293, 1.0 ],
					"textjustification" : 1
				}

			}
, 			{
				"box" : 				{
					"floatoutput" : 1,
					"id" : "obj-73",
					"knobcolor" : [ 0.666666666666667, 0.72156862745098, 0.737254901960784, 1.0 ],
					"maxclass" : "slider",
					"numinlets" : 1,
					"numoutlets" : 1,
					"outlettype" : [ "" ],
					"parameter_enable" : 0,
					"patching_rect" : [ 648.05084228515625, 95.5, 20.0, 140.0 ],
					"presentation" : 1,
					"presentation_rect" : [ 474.3587646484375, 162.0, 20.0, 140.0 ],
					"size" : 127.0
				}

			}
, 			{
				"box" : 				{
					"fontface" : 0,
					"id" : "obj-55",
					"maxclass" : "comment",
					"numinlets" : 1,
					"numoutlets" : 0,
					"patching_rect" : [ 525.69207763671875, 68.5, 62.0, 20.0 ],
					"presentation" : 1,
					"presentation_rect" : [ 352.0, 135.0, 62.0, 20.0 ],
					"text" : "Decay",
					"textcolor" : [ 0.996078431606293, 0.996078431606293, 0.996078431606293, 1.0 ],
					"textjustification" : 1
				}

			}
, 			{
				"box" : 				{
					"fontface" : 0,
					"id" : "obj-63",
					"maxclass" : "comment",
					"numinlets" : 1,
					"numoutlets" : 0,
					"patching_rect" : [ 576.05084228515625, 68.7415771484375, 62.0, 20.0 ],
					"presentation" : 1,
					"presentation_rect" : [ 402.3587646484375, 135.2415771484375, 62.0, 20.0 ],
					"text" : "Sustain",
					"textcolor" : [ 0.996078431606293, 0.996078431606293, 0.996078431606293, 1.0 ],
					"textjustification" : 1
				}

			}
, 			{
				"box" : 				{
					"floatoutput" : 1,
					"id" : "obj-56",
					"knobcolor" : [ 0.666666666666667, 0.72156862745098, 0.737254901960784, 1.0 ],
					"maxclass" : "slider",
					"numinlets" : 1,
					"numoutlets" : 1,
					"outlettype" : [ "" ],
					"parameter_enable" : 0,
					"patching_rect" : [ 596.70257568359375, 95.5, 20.0, 140.0 ],
					"presentation" : 1,
					"presentation_rect" : [ 423.010498046875, 162.0, 20.0, 140.0 ],
					"size" : 127.0
				}

			}
, 			{
				"box" : 				{
					"fontface" : 0,
					"id" : "obj-65",
					"maxclass" : "comment",
					"numinlets" : 1,
					"numoutlets" : 0,
					"patching_rect" : [ 482.69207763671875, 68.5, 42.0, 20.0 ],
					"presentation" : 1,
					"presentation_rect" : [ 309.0, 135.0, 42.0, 20.0 ],
					"text" : "Attack",
					"textcolor" : [ 0.996078431606293, 0.996078431606293, 0.996078431606293, 1.0 ],
					"textjustification" : 1
				}

			}
, 			{
				"box" : 				{
					"floatoutput" : 1,
					"id" : "obj-68",
					"knobcolor" : [ 0.666666666666667, 0.72156862745098, 0.737254901960784, 1.0 ],
					"maxclass" : "slider",
					"numinlets" : 1,
					"numoutlets" : 1,
					"outlettype" : [ "" ],
					"parameter_enable" : 0,
					"patching_rect" : [ 546.69207763671875, 95.5, 20.0, 140.0 ],
					"presentation" : 1,
					"presentation_rect" : [ 373.0, 162.0, 20.0, 140.0 ],
					"size" : 127.0
				}

			}
, 			{
				"box" : 				{
					"floatoutput" : 1,
					"id" : "obj-71",
					"knobcolor" : [ 0.666666666666667, 0.72156862745098, 0.737254901960784, 1.0 ],
					"maxclass" : "slider",
					"numinlets" : 1,
					"numoutlets" : 1,
					"outlettype" : [ "" ],
					"parameter_enable" : 0,
					"patching_rect" : [ 493.69207763671875, 95.5, 20.0, 140.0 ],
					"presentation" : 1,
					"presentation_rect" : [ 320.0, 162.0, 20.0, 140.0 ],
					"size" : 127.0
				}

			}
, 			{
				"box" : 				{
					"id" : "obj-23",
					"maxclass" : "message",
					"numinlets" : 2,
					"numoutlets" : 1,
					"outlettype" : [ "" ],
					"patching_rect" : [ 515.95928955078125, 301.0, 29.5, 22.0 ],
					"text" : "63."
				}

			}
, 			{
				"box" : 				{
					"id" : "obj-62",
					"maxclass" : "preset",
					"numinlets" : 1,
					"numoutlets" : 4,
					"outlettype" : [ "preset", "int", "preset", "int" ],
					"patching_rect" : [ 24.757537841796875, 70.5, 18.285751342773438, 16.0 ],
					"preset_data" : [ 						{
							"number" : 1,
							"data" : [ 5, "obj-8", "live.gain~", "float", 0.049309410154819, 5, "obj-71", "slider", "float", 18.033685684204102, 5, "obj-68", "slider", "float", 32.451179504394531, 5, "obj-56", "slider", "float", 53.328971862792969, 5, "obj-73", "slider", "float", 86.418296813964844, 5, "obj-54", "radiogroup", "list", 0, 5, "obj-53", "radiogroup", "list", 0, 5, "obj-35", "slider", "float", 66.430770874023438, 5, "obj-105", "slider", "float", 35.334678649902344, 5, "obj-104", "slider", "float", 5.0, 5, "obj-69", "slider", "float", 63.0, 5, "obj-67", "slider", "float", 2.0, 5, "obj-50", "slider", "float", 63.0, 5, "obj-61", "radiogroup", "int", 1, 5, "obj-77", "slider", "float", 0.0, 5, "obj-94", "slider", "float", 88.900001525878906, 5, "obj-92", "slider", "float", 61.551437377929688, 5, "obj-90", "radiogroup", "int", 0, 5, "obj-181", "radiogroup", "list", 0, 5, "obj-46", "slider", "float", 1.953846096992493, 5, "obj-28", "number", "int", 50, 5, "obj-31", "number", "int", 0, 5, "obj-14", "slider", "float", 0.0, 5, "obj-13", "slider", "float", 0.0, 5, "obj-10", "slider", "float", 66.927108764648438, 5, "obj-7", "slider", "float", 0.0 ]
						}
 ]
				}

			}
, 			{
				"box" : 				{
					"id" : "obj-8",
					"lastchannelcount" : 0,
					"maxclass" : "live.gain~",
					"numinlets" : 2,
					"numoutlets" : 5,
					"outlettype" : [ "signal", "signal", "", "float", "list" ],
					"parameter_enable" : 1,
					"patching_rect" : [ 24.757537841796875, 545.0, 46.0, 100.0 ],
					"saved_attribute_attributes" : 					{
						"valueof" : 						{
							"parameter_longname" : "live.gain~",
							"parameter_mmax" : 6.0,
							"parameter_initial" : [ 0.0 ],
							"parameter_shortname" : "live.gain~",
							"parameter_type" : 0,
							"parameter_unitstyle" : 4,
							"parameter_mmin" : -70.0
						}

					}
,
					"varname" : "live.gain~"
				}

			}
, 			{
				"box" : 				{
					"id" : "obj-12",
					"maxclass" : "ezdac~",
					"numinlets" : 2,
					"numoutlets" : 0,
					"patching_rect" : [ 83.340850830078125, 600.0, 45.0, 45.0 ]
				}

			}
, 			{
				"box" : 				{
					"angle" : 270.0,
					"background" : 1,
					"bgcolor" : [ 0.498039215686275, 0.498039215686275, 0.498039215686275, 1.0 ],
					"id" : "obj-80",
					"maxclass" : "panel",
					"mode" : 0,
					"numinlets" : 1,
					"numoutlets" : 0,
					"patching_rect" : [ 472.69207763671875, 31.5, 354.348388671875, 216.0 ],
					"presentation" : 1,
					"presentation_rect" : [ 299.0, 98.0, 354.348388671875, 216.0 ],
					"proportion" : 0.5
				}

			}
, 			{
				"box" : 				{
					"angle" : 270.0,
					"background" : 1,
					"bgcolor" : [ 0.498039215686275, 0.498039215686275, 0.498039215686275, 1.0 ],
					"id" : "obj-106",
					"maxclass" : "panel",
					"mode" : 0,
					"numinlets" : 1,
					"numoutlets" : 0,
					"patching_rect" : [ 133.08331298828125, 31.5, 116.2071533203125, 216.0 ],
					"presentation" : 1,
					"presentation_rect" : [ 495.0072021484375, 154.0, 116.2071533203125, 216.0 ],
					"proportion" : 0.5
				}

			}
, 			{
				"box" : 				{
					"angle" : 270.0,
					"background" : 1,
					"bgcolor" : [ 0.498039215686275, 0.498039215686275, 0.498039215686275, 1.0 ],
					"id" : "obj-78",
					"maxclass" : "panel",
					"mode" : 0,
					"numinlets" : 1,
					"numoutlets" : 0,
					"patching_rect" : [ 766.33331298828125, 251.5, 60.7071533203125, 216.0 ],
					"presentation" : 1,
					"presentation_rect" : [ 771.0072021484375, 399.0, 60.7071533203125, 216.0 ],
					"proportion" : 0.5
				}

			}
, 			{
				"box" : 				{
					"angle" : 270.0,
					"background" : 1,
					"bgcolor" : [ 0.498039215686275, 0.498039215686275, 0.498039215686275, 1.0 ],
					"id" : "obj-70",
					"maxclass" : "panel",
					"mode" : 0,
					"numinlets" : 1,
					"numoutlets" : 0,
					"patching_rect" : [ 324.0, 251.5, 251.142822265625, 216.0 ],
					"presentation" : 1,
					"presentation_rect" : [ 756.07147216796875, 384.0, 251.142822265625, 216.0 ],
					"proportion" : 0.5
				}

			}
, 			{
				"box" : 				{
					"angle" : 270.0,
					"background" : 1,
					"bgcolor" : [ 0.498039215686275, 0.498039215686275, 0.498039215686275, 1.0 ],
					"id" : "obj-16",
					"maxclass" : "panel",
					"mode" : 0,
					"numinlets" : 1,
					"numoutlets" : 0,
					"patching_rect" : [ 251.7071533203125, 31.5, 216.7071533203125, 216.0 ],
					"presentation" : 1,
					"presentation_rect" : [ 756.0072021484375, 384.0, 216.7071533203125, 216.0 ],
					"proportion" : 0.5
				}

			}
, 			{
				"box" : 				{
					"angle" : 270.0,
					"background" : 1,
					"bgcolor" : [ 0.498039215686275, 0.498039215686275, 0.498039215686275, 1.0 ],
					"id" : "obj-117",
					"maxclass" : "panel",
					"mode" : 0,
					"numinlets" : 1,
					"numoutlets" : 0,
					"patching_rect" : [ 107.0, 251.5, 214.357177734375, 216.0 ],
					"presentation" : 1,
					"presentation_rect" : [ 755.71429443359375, 384.0, 123.357177734375, 216.0 ],
					"proportion" : 0.5
				}

			}
, 			{
				"box" : 				{
					"angle" : 270.0,
					"background" : 1,
					"bgcolor" : [ 0.498039215686275, 0.498039215686275, 0.498039215686275, 1.0 ],
					"id" : "obj-100",
					"maxclass" : "panel",
					"mode" : 0,
					"numinlets" : 1,
					"numoutlets" : 0,
					"patching_rect" : [ 578.48492431640625, 251.5, 184.7857666015625, 216.0 ],
					"presentation" : 1,
					"presentation_rect" : [ 613.71435546875, 257.0, 184.7857666015625, 216.0 ],
					"proportion" : 0.5
				}

			}
, 			{
				"box" : 				{
					"angle" : 270.0,
					"background" : 1,
					"bgcolor" : [ 0.396078431372549, 0.396078431372549, 0.396078431372549, 0.84 ],
					"id" : "obj-130",
					"maxclass" : "panel",
					"mode" : 0,
					"numinlets" : 1,
					"numoutlets" : 0,
					"patching_rect" : [ 857.219970703125, 31.5, 398.5, 605.0 ],
					"proportion" : 0.5
				}

			}
 ],
		"lines" : [ 			{
				"patchline" : 				{
					"destination" : [ "obj-62", 0 ],
					"source" : [ "obj-1", 0 ]
				}

			}
, 			{
				"patchline" : 				{
					"destination" : [ "obj-161", 14 ],
					"midpoints" : [ 386.2071533203125, 237.0, 321.0, 237.0, 321.0, 492.0, 358.895585280198304, 492.0 ],
					"source" : [ "obj-10", 0 ]
				}

			}
, 			{
				"patchline" : 				{
					"destination" : [ "obj-161", 19 ],
					"midpoints" : [ 216.58331298828125, 237.0, 93.0, 237.0, 93.0, 462.0, 102.0, 462.0, 102.0, 477.0, 474.837745079627382, 477.0 ],
					"source" : [ "obj-104", 0 ]
				}

			}
, 			{
				"patchline" : 				{
					"destination" : [ "obj-161", 18 ],
					"midpoints" : [ 165.58331298828125, 237.0, 93.0, 237.0, 93.0, 462.0, 102.0, 462.0, 102.0, 477.0, 451.649313119741578, 477.0 ],
					"source" : [ "obj-105", 0 ]
				}

			}
, 			{
				"patchline" : 				{
					"destination" : [ "obj-161", 0 ],
					"source" : [ "obj-118", 0 ]
				}

			}
, 			{
				"patchline" : 				{
					"destination" : [ "obj-161", 1 ],
					"source" : [ "obj-121", 0 ]
				}

			}
, 			{
				"patchline" : 				{
					"destination" : [ "obj-161", 9 ],
					"midpoints" : [ 335.2071533203125, 237.0, 321.0, 237.0, 321.0, 492.0, 242.953425480769226, 492.0 ],
					"source" : [ "obj-13", 0 ]
				}

			}
, 			{
				"patchline" : 				{
					"destination" : [ "obj-133", 1 ],
					"source" : [ "obj-132", 1 ]
				}

			}
, 			{
				"patchline" : 				{
					"destination" : [ "obj-133", 0 ],
					"order" : 1,
					"source" : [ "obj-132", 0 ]
				}

			}
, 			{
				"patchline" : 				{
					"destination" : [ "obj-50", 0 ],
					"order" : 0,
					"source" : [ "obj-132", 0 ]
				}

			}
, 			{
				"patchline" : 				{
					"destination" : [ "obj-24", 1 ],
					"source" : [ "obj-133", 0 ]
				}

			}
, 			{
				"patchline" : 				{
					"destination" : [ "obj-161", 7 ],
					"midpoints" : [ 284.2071533203125, 237.0, 321.0, 237.0, 321.0, 492.0, 196.57656156099759, 492.0 ],
					"source" : [ "obj-14", 0 ]
				}

			}
, 			{
				"patchline" : 				{
					"destination" : [ "obj-120", 0 ],
					"midpoints" : [ 411.069557189941406, 540.0, 849.0, 540.0, 849.0, 396.0, 952.219970703125, 396.0 ],
					"source" : [ "obj-161", 5 ]
				}

			}
, 			{
				"patchline" : 				{
					"destination" : [ "obj-129", 0 ],
					"midpoints" : [ 637.156768798828125, 540.0, 849.0, 540.0, 849.0, 162.0, 952.219970703125, 162.0 ],
					"source" : [ "obj-161", 8 ]
				}

			}
, 			{
				"patchline" : 				{
					"destination" : [ "obj-39", 0 ],
					"midpoints" : [ 561.794364929199219, 540.0, 849.0, 540.0, 849.0, 45.0, 952.219970703125, 45.0 ],
					"source" : [ "obj-161", 7 ]
				}

			}
, 			{
				"patchline" : 				{
					"destination" : [ "obj-8", 1 ],
					"order" : 1,
					"source" : [ "obj-161", 0 ]
				}

			}
, 			{
				"patchline" : 				{
					"destination" : [ "obj-8", 0 ],
					"order" : 2,
					"source" : [ "obj-161", 0 ]
				}

			}
, 			{
				"patchline" : 				{
					"destination" : [ "obj-83", 0 ],
					"midpoints" : [ 260.344749450683594, 540.0, 849.0, 540.0, 849.0, 279.0, 952.219970703125, 279.0 ],
					"source" : [ "obj-161", 3 ]
				}

			}
, 			{
				"patchline" : 				{
					"destination" : [ "obj-85", 0 ],
					"midpoints" : [ 34.257537841796875, 540.0, 406.0, 540.0, 406.0, 540.0, 851.0, 540.0, 851.0, 513.0, 952.219970703125, 513.0 ],
					"order" : 0,
					"source" : [ "obj-161", 0 ]
				}

			}
, 			{
				"patchline" : 				{
					"destination" : [ "obj-161", 13 ],
					"midpoints" : [ 707.77069091796875, 345.0, 684.0, 345.0, 684.0, 492.0, 335.7071533203125, 492.0 ],
					"source" : [ "obj-181", 0 ]
				}

			}
, 			{
				"patchline" : 				{
					"destination" : [ "obj-50", 0 ],
					"order" : 1,
					"source" : [ "obj-23", 0 ]
				}

			}
, 			{
				"patchline" : 				{
					"destination" : [ "obj-69", 0 ],
					"order" : 0,
					"source" : [ "obj-23", 0 ]
				}

			}
, 			{
				"patchline" : 				{
					"destination" : [ "obj-28", 0 ],
					"source" : [ "obj-24", 0 ]
				}

			}
, 			{
				"patchline" : 				{
					"destination" : [ "obj-31", 0 ],
					"source" : [ "obj-24", 1 ]
				}

			}
, 			{
				"patchline" : 				{
					"destination" : [ "obj-42", 2 ],
					"source" : [ "obj-26", 2 ]
				}

			}
, 			{
				"patchline" : 				{
					"destination" : [ "obj-42", 1 ],
					"source" : [ "obj-26", 1 ]
				}

			}
, 			{
				"patchline" : 				{
					"destination" : [ "obj-42", 0 ],
					"source" : [ "obj-26", 0 ]
				}

			}
, 			{
				"patchline" : 				{
					"destination" : [ "obj-116", 0 ],
					"source" : [ "obj-28", 0 ]
				}

			}
, 			{
				"patchline" : 				{
					"destination" : [ "obj-4", 0 ],
					"source" : [ "obj-31", 0 ]
				}

			}
, 			{
				"patchline" : 				{
					"destination" : [ "obj-161", 24 ],
					"midpoints" : [ 708.89923095703125, 237.0, 837.0, 237.0, 837.0, 492.0, 590.779904879056517, 492.0 ],
					"source" : [ "obj-35", 0 ]
				}

			}
, 			{
				"patchline" : 				{
					"destination" : [ "obj-24", 0 ],
					"source" : [ "obj-42", 0 ]
				}

			}
, 			{
				"patchline" : 				{
					"destination" : [ "obj-161", 2 ],
					"midpoints" : [ 287.857177734375, 492.0, 80.634401761568512, 492.0 ],
					"source" : [ "obj-46", 0 ]
				}

			}
, 			{
				"patchline" : 				{
					"destination" : [ "obj-161", 4 ],
					"midpoints" : [ 405.0, 492.0, 127.011265681340149, 492.0 ],
					"source" : [ "obj-50", 0 ]
				}

			}
, 			{
				"patchline" : 				{
					"destination" : [ "obj-161", 26 ],
					"midpoints" : [ 760.89923095703125, 237.0, 837.0, 237.0, 837.0, 492.0, 637.156768798828125, 492.0 ],
					"source" : [ "obj-53", 0 ]
				}

			}
, 			{
				"patchline" : 				{
					"destination" : [ "obj-161", 25 ],
					"midpoints" : [ 760.89923095703125, 168.0, 837.0, 168.0, 837.0, 492.0, 613.968336838942264, 492.0 ],
					"source" : [ "obj-54", 0 ]
				}

			}
, 			{
				"patchline" : 				{
					"destination" : [ "obj-161", 22 ],
					"midpoints" : [ 606.20257568359375, 237.0, 837.0, 237.0, 837.0, 492.0, 544.403040959284908, 492.0 ],
					"source" : [ "obj-56", 0 ]
				}

			}
, 			{
				"patchline" : 				{
					"destination" : [ "obj-161", 6 ],
					"midpoints" : [ 505.70928955078125, 492.0, 173.388129601111785, 492.0 ],
					"source" : [ "obj-61", 0 ]
				}

			}
, 			{
				"patchline" : 				{
					"destination" : [ "obj-161", 3 ],
					"midpoints" : [ 354.0, 492.0, 103.82283372145433, 492.0 ],
					"source" : [ "obj-67", 0 ]
				}

			}
, 			{
				"patchline" : 				{
					"destination" : [ "obj-161", 21 ],
					"midpoints" : [ 556.19207763671875, 237.0, 837.0, 237.0, 837.0, 492.0, 521.214608999399047, 492.0 ],
					"source" : [ "obj-68", 0 ]
				}

			}
, 			{
				"patchline" : 				{
					"destination" : [ "obj-161", 5 ],
					"midpoints" : [ 457.0, 492.0, 150.199697641225953, 492.0 ],
					"source" : [ "obj-69", 0 ]
				}

			}
, 			{
				"patchline" : 				{
					"destination" : [ "obj-161", 16 ],
					"midpoints" : [ 438.2071533203125, 237.0, 321.0, 237.0, 321.0, 492.0, 405.272449199969969, 492.0 ],
					"source" : [ "obj-7", 0 ]
				}

			}
, 			{
				"patchline" : 				{
					"destination" : [ "obj-161", 20 ],
					"midpoints" : [ 503.19207763671875, 237.0, 837.0, 237.0, 837.0, 492.0, 498.026177039513243, 492.0 ],
					"source" : [ "obj-71", 0 ]
				}

			}
, 			{
				"patchline" : 				{
					"destination" : [ "obj-161", 23 ],
					"midpoints" : [ 657.55084228515625, 237.0, 837.0, 237.0, 837.0, 492.0, 567.591472919170656, 492.0 ],
					"source" : [ "obj-73", 0 ]
				}

			}
, 			{
				"patchline" : 				{
					"destination" : [ "obj-161", 17 ],
					"midpoints" : [ 796.83331298828125, 492.0, 428.460881159855774, 492.0 ],
					"source" : [ "obj-77", 0 ]
				}

			}
, 			{
				"patchline" : 				{
					"destination" : [ "obj-12", 1 ],
					"source" : [ "obj-8", 1 ]
				}

			}
, 			{
				"patchline" : 				{
					"destination" : [ "obj-12", 0 ],
					"source" : [ "obj-8", 0 ]
				}

			}
, 			{
				"patchline" : 				{
					"destination" : [ "obj-161", 12 ],
					"midpoints" : [ 707.77069091796875, 492.0, 312.518721360426696, 492.0 ],
					"source" : [ "obj-90", 0 ]
				}

			}
, 			{
				"patchline" : 				{
					"destination" : [ "obj-161", 10 ],
					"midpoints" : [ 609.98492431640625, 492.0, 266.141857440655031, 492.0 ],
					"source" : [ "obj-92", 0 ]
				}

			}
, 			{
				"patchline" : 				{
					"destination" : [ "obj-161", 11 ],
					"midpoints" : [ 661.98492431640625, 492.0, 289.330289400540892, 492.0 ],
					"source" : [ "obj-94", 0 ]
				}

			}
 ],
		"parameters" : 		{
			"obj-8" : [ "live.gain~", "live.gain~", 0 ],
			"parameterbanks" : 			{

			}

		}
,
		"dependency_cache" : [ 			{
				"name" : "jg.voice.mod2~.maxpat",
				"bootpath" : "~/Documents/Max 8/Library/jg/synth/synths/voices",
				"patcherrelativepath" : "./voices",
				"type" : "JSON",
				"implicit" : 1
			}
, 			{
				"name" : "jg.voice.mod0~.maxpat",
				"bootpath" : "~/Documents/Max 8/Library/jg/synth/synths/voices",
				"patcherrelativepath" : "./voices",
				"type" : "JSON",
				"implicit" : 1
			}
, 			{
				"name" : "jg.dco~.maxpat",
				"bootpath" : "~/Documents/Max 8/Library/jg/synth/modules",
				"patcherrelativepath" : "../modules",
				"type" : "JSON",
				"implicit" : 1
			}
, 			{
				"name" : "jg.dcsvf~.maxpat",
				"bootpath" : "~/Documents/Max 8/Library/jg/synth/modules",
				"patcherrelativepath" : "../modules",
				"type" : "JSON",
				"implicit" : 1
			}
, 			{
				"name" : "jg.mtoa.maxpat",
				"bootpath" : "~/Documents/Max 8/Library/jg/synth/util",
				"patcherrelativepath" : "../util",
				"type" : "JSON",
				"implicit" : 1
			}
, 			{
				"name" : "jg.mix~.maxpat",
				"bootpath" : "~/Documents/Max 8/Library/jg/synth/util",
				"patcherrelativepath" : "../util",
				"type" : "JSON",
				"implicit" : 1
			}
, 			{
				"name" : "jg.ramp~.maxpat",
				"bootpath" : "~/Documents/Max 8/Library/jg/synth/util",
				"patcherrelativepath" : "../util",
				"type" : "JSON",
				"implicit" : 1
			}
, 			{
				"name" : "jg.hlfo~.maxpat",
				"bootpath" : "~/Documents/Max 8/Library/jg/synth/modules",
				"patcherrelativepath" : "../modules",
				"type" : "JSON",
				"implicit" : 1
			}
, 			{
				"name" : "jg.mtof.maxpat",
				"bootpath" : "~/Documents/Max 8/Library/jg/synth/util",
				"patcherrelativepath" : "../util",
				"type" : "JSON",
				"implicit" : 1
			}
, 			{
				"name" : "jg.adsrs~.maxpat",
				"bootpath" : "~/Documents/Max 8/Library/jg/synth/modules",
				"patcherrelativepath" : "../modules",
				"type" : "JSON",
				"implicit" : 1
			}
, 			{
				"name" : "jg.notem.js",
				"bootpath" : "~/Documents/Max 8/Library/jg/synth/util",
				"patcherrelativepath" : "../util",
				"type" : "TEXT",
				"implicit" : 1
			}
, 			{
				"name" : "jg.mfe~.mxo",
				"type" : "iLaX"
			}
, 			{
				"name" : "jg.modlin~.mxo",
				"type" : "iLaX"
			}
, 			{
				"name" : "jg.egen~.mxo",
				"type" : "iLaX"
			}
 ],
		"autosave" : 0,
		"boxgroups" : [ 			{
				"boxes" : [ "obj-80", "obj-53", "obj-51", "obj-73", "obj-54", "obj-52", "obj-35", "obj-56", "obj-68", "obj-71", "obj-65", "obj-63", "obj-55", "obj-72", "obj-34", "obj-81" ]
			}
, 			{
				"boxes" : [ "obj-106", "obj-96", "obj-105", "obj-104", "obj-103", "obj-99" ]
			}
, 			{
				"boxes" : [ "obj-78", "obj-77", "obj-76", "obj-75" ]
			}
, 			{
				"boxes" : [ "obj-89", "obj-88", "obj-74", "obj-90", "obj-100", "obj-95", "obj-91", "obj-93", "obj-92", "obj-94", "obj-181", "obj-165" ]
			}
, 			{
				"boxes" : [ "obj-18", "obj-59", "obj-60", "obj-61", "obj-69", "obj-70", "obj-23", "obj-33", "obj-66", "obj-50", "obj-67", "obj-36", "obj-41" ]
			}
, 			{
				"boxes" : [ "obj-16", "obj-7", "obj-10", "obj-13", "obj-14", "obj-5", "obj-9", "obj-101", "obj-11", "obj-3" ]
			}
, 			{
				"boxes" : [ "obj-117", "obj-40", "obj-45", "obj-26", "obj-132", "obj-46", "obj-43", "obj-24", "obj-42", "obj-133", "obj-116", "obj-4", "obj-28", "obj-31" ]
			}
, 			{
				"boxes" : [ "obj-130", "obj-85", "obj-83", "obj-119", "obj-120", "obj-29", "obj-86", "obj-129", "obj-128", "obj-39", "obj-32" ]
			}
 ]
	}

}
